<svg xmlns="http://www.w3.org/2000/svg" viewBox="0 0 512 512">
  <defs>
    <linearGradient id="bg5" x1="0%" y1="0%" x2="100%" y2="100%">
      <stop offset="0%" stop-color="#6366f1"/>
      <stop offset="50%" stop-color="#8b5cf6"/>
      <stop offset="100%" stop-color="#a855f7"/>
    </linearGradient>
  </defs>
  <rect width="512" height="512" rx="108" ry="108" fill="url(#bg5)"/>
  <!-- Central hexagon -->
  <polygon points="256,150 340,196 340,316 256,362 172,316 172,196" fill="none" stroke="#ffffff" stroke-width="10"/>
  <!-- Outer partial hexagons — connected network feel -->
  <!-- Top -->
  <polyline points="200,106 256,80 312,106" fill="none" stroke="rgba(255,255,255,0.3)" stroke-width="6" stroke-linecap="round"/>
  <!-- Top right -->
  <polyline points="370,160 396,216 370,272" fill="none" stroke="rgba(255,255,255,0.3)" stroke-width="6" stroke-linecap="round"/>
  <!-- Top left -->
  <polyline points="142,160 116,216 142,272" fill="none" stroke="rgba(255,255,255,0.3)" stroke-width="6" stroke-linecap="round"/>
  <!-- Bottom right -->
  <polyline points="370,240 396,296 370,352" fill="none" stroke="rgba(255,255,255,0.25)" stroke-width="6" stroke-linecap="round"/>
  <!-- Bottom left -->
  <polyline points="142,240 116,296 142,352" fill="none" stroke="rgba(255,255,255,0.25)" stroke-width="6" stroke-linecap="round"/>
  <!-- Bottom -->
  <polyline points="200,406 256,432 312,406" fill="none" stroke="rgba(255,255,255,0.2)" stroke-width="6" stroke-linecap="round"/>
  <!-- Connection dots at vertices -->
  <circle cx="256" cy="150" r="10" fill="#ffffff"/>
  <circle cx="340" cy="196" r="10" fill="#ffffff"/>
  <circle cx="340" cy="316" r="10" fill="#ffffff"/>
  <circle cx="256" cy="362" r="10" fill="#ffffff"/>
  <circle cx="172" cy="316" r="10" fill="#ffffff"/>
  <circle cx="172" cy="196" r="10" fill="#ffffff"/>
</svg>
