<svg xmlns="http://www.w3.org/2000/svg" viewBox="0 0 512 512">
  <defs>
    <linearGradient id="bgC" x1="0%" y1="0%" x2="100%" y2="100%">
      <stop offset="0%" stop-color="#6366f1"/>
      <stop offset="50%" stop-color="#8b5cf6"/>
      <stop offset="100%" stop-color="#a855f7"/>
    </linearGradient>
  </defs>
  <rect width="512" height="512" rx="108" ry="108" fill="url(#bgC)"/>
  <!-- Central hexagon — thicker, bolder -->
  <polygon points="256,120 358,176 358,336 256,392 154,336 154,176" fill="none" stroke="#ffffff" stroke-width="12"/>
  <!-- Outer partial hexagons -->
  <polyline points="198,78 256,48 314,78" fill="none" stroke="rgba(255,255,255,0.3)" stroke-width="5" stroke-linecap="round"/>
  <polyline points="390,145 418,210 390,275" fill="none" stroke="rgba(255,255,255,0.3)" stroke-width="5" stroke-linecap="round"/>
  <polyline points="122,145 94,210 122,275" fill="none" stroke="rgba(255,255,255,0.3)" stroke-width="5" stroke-linecap="round"/>
  <polyline points="390,237 418,302 390,367" fill="none" stroke="rgba(255,255,255,0.22)" stroke-width="5" stroke-linecap="round"/>
  <polyline points="122,237 94,302 122,367" fill="none" stroke="rgba(255,255,255,0.22)" stroke-width="5" stroke-linecap="round"/>
  <polyline points="198,434 256,464 314,434" fill="none" stroke="rgba(255,255,255,0.18)" stroke-width="5" stroke-linecap="round"/>
  <!-- Vertex dots -->
  <circle cx="256" cy="120" r="8" fill="#ffffff"/>
  <circle cx="358" cy="176" r="8" fill="#ffffff"/>
  <circle cx="358" cy="336" r="8" fill="#ffffff"/>
  <circle cx="256" cy="392" r="8" fill="#ffffff"/>
  <circle cx="154" cy="336" r="8" fill="#ffffff"/>
  <circle cx="154" cy="176" r="8" fill="#ffffff"/>
  <!-- Small "V" above, faded -->
  <text x="217" y="250" font-family="Arial, Helvetica, sans-serif" font-weight="600" font-size="80" fill="rgba(255,255,255,0.4)" text-anchor="middle">V</text>
  <!-- Small "N" below, bold italic -->
  <text x="296" y="310" font-family="Arial, Helvetica, sans-serif" font-weight="900" font-style="italic" font-size="80" fill="#ffffff" text-anchor="middle">N</text>
</svg>
